# xmcd
#
# Track frame offsets:
#	150
#	25125
#	35400
#	46500
#	57374
#	70874
#	80924
#	92773
#	104923
#	119098
#	125098
#	132372
#	143022
#	171297
#	188846
#	209021
#	223796
#	232870
#	250120
#	302920
#
# Disc length: 4349 seconds
#
# Revision: 3
# Processed by: cddbd v1.5.2PL0 Copyright (c) Steve Scherf et al.
# Submitted via: audiograbber 1.83.01
#
DISCID=3010fb14
DTITLE=Yoga - Fitness und Entspannung [CD 1)
DYEAR=2007
DGENRE=New Age
TTITLE0=Sukhasana  (Einfacher  Schneidersitz)
TTITLE1=Rückendehnung
TTITLE2=Dvi Pada Pitham (Schulterbrücke)
TTITLE3=Matsyasana (Fisch)
TTITLE4=Setu Bandha  Sarvangasana (Kleine Brücke)
TTITLE5=Salabhasana (Heuschrecke)
TTITLE6=Balasana (Stellung des Kindes)
TTITLE7=Virasana (Held)
TTITLE8=Marjariasana (Katze)
TTITLE9=Adho Mukha Svanasana (Nach unten schauender Hund)
TTITLE10=Dandasana (Stockhaltung)
TTITLE11=Paschimothanasana (Kniekuss)
TTITLE12=Gomukhasana (Kuh-Maul)
TTITLE13=Tadasana (Berg)
TTITLE14=Uttanasana (Rumpfbeuge im Stehen)
TTITLE15=Virabhadrasana (Krieger)
TTITLE16=Utkatasana (Stuhl)
TTITLE17=Vrksasana (Baum)
TTITLE18=Surya Namaskar (Sonnengruß)
TTITLE19=Savasana (Totenstille)
EXTD=YEAR: 2007
EXTT0=
EXTT1=
EXTT2=
EXTT3=
EXTT4=
EXTT5=
EXTT6=
EXTT7=
EXTT8=
EXTT9=
EXTT10=
EXTT11=
EXTT12=
EXTT13=
EXTT14=
EXTT15=
EXTT16=
EXTT17=
EXTT18=
EXTT19=
PLAYORDER=
